<svg width="15" height="15" viewBox="0 0 15 15" fill="none" xmlns="http://www.w3.org/2000/svg">
<path fill-rule="evenodd" clip-rule="evenodd" d="M1.73358 1.91327C1.73358 1.58982 1.99579 1.32761 2.31924 1.32761H6.41886C6.74231 1.32761 7.00452 1.58982 7.00452 1.91327V7.18421C7.00452 7.50766 6.74231 7.76987 6.41886 7.76987H2.31924C1.99579 7.76987 1.73358 7.50766 1.73358 7.18421V1.91327ZM2.9049 2.49893V6.59855H5.8332V2.49893H2.9049Z" fill="white"/>
<path fill-rule="evenodd" clip-rule="evenodd" d="M8.17584 1.91327C8.17584 1.58982 8.43805 1.32761 8.7615 1.32761H12.8611C13.1846 1.32761 13.4468 1.58982 13.4468 1.91327V4.84157C13.4468 5.16502 13.1846 5.42723 12.8611 5.42723H8.7615C8.43805 5.42723 8.17584 5.16502 8.17584 4.84157V1.91327ZM9.34716 2.49893V4.25591H12.2755V2.49893H9.34716Z" fill="white"/>
<path fill-rule="evenodd" clip-rule="evenodd" d="M8.17584 7.1842C8.17584 6.86075 8.43805 6.59854 8.7615 6.59854H12.8611C13.1846 6.59854 13.4468 6.86075 13.4468 7.1842V12.4551C13.4468 12.7786 13.1846 13.0408 12.8611 13.0408H8.7615C8.43805 13.0408 8.17584 12.7786 8.17584 12.4551V7.1842ZM9.34716 7.76986V11.8695H12.2755V7.76986H9.34716Z" fill="white"/>
<path fill-rule="evenodd" clip-rule="evenodd" d="M1.73358 9.52685C1.73358 9.2034 1.99579 8.94119 2.31924 8.94119H6.41886C6.74231 8.94119 7.00452 9.2034 7.00452 9.52685V12.4552C7.00452 12.7786 6.74231 13.0408 6.41886 13.0408H2.31924C1.99579 13.0408 1.73358 12.7786 1.73358 12.4552V9.52685ZM2.9049 10.1125V11.8695H5.8332V10.1125H2.9049Z" fill="white"/>
</svg>
