<svg width="17" height="16" viewBox="0 0 17 16" fill="none" xmlns="http://www.w3.org/2000/svg">
<path d="M9.00116 2.55032C10.636 1.08289 13.1623 1.13161 14.7369 2.70958C16.3116 4.28755 16.3657 6.80152 14.9012 8.44118L9.0004 14.3512L3.09976 8.44118C1.63525 6.80152 1.68999 4.28358 3.26399 2.70958C4.83977 1.1338 7.36163 1.08071 9.00116 2.55032ZM13.7517 3.69278C12.7084 2.64735 11.024 2.60494 9.93095 3.58614L9.00179 4.42014L8.07214 3.58679C6.97593 2.60422 5.29457 2.64744 4.24821 3.6938C3.21143 4.73059 3.15938 6.39112 4.11484 7.48787L9.0004 12.3812L13.8861 7.48787C14.8419 6.3907 14.7901 4.73333 13.7517 3.69278Z" fill="white"/>
</svg>
