<svg width="15" height="15" viewBox="0 0 15 15" fill="none" xmlns="http://www.w3.org/2000/svg">
<g clip-path="url(#clip0_95_246)">
<path fill-rule="evenodd" clip-rule="evenodd" d="M7.21103 0.865311C7.42252 0.700821 7.71866 0.700821 7.93015 0.865311L13.2011 4.96493C13.3437 5.07589 13.4272 5.24649 13.4272 5.42722V11.8695C13.4272 12.3355 13.2421 12.7824 12.9126 13.1119C12.5831 13.4414 12.1362 13.6265 11.6702 13.6265H3.47097C3.00499 13.6265 2.55809 13.4414 2.2286 13.1119C1.8991 12.7824 1.71399 12.3355 1.71399 11.8695V5.42722C1.71399 5.24649 1.79743 5.07589 1.94009 4.96493L7.21103 0.865311ZM2.88531 5.71366V11.8695C2.88531 12.0248 2.94701 12.1738 3.05685 12.2836C3.16668 12.3934 3.31564 12.4551 3.47097 12.4551H11.6702C11.8255 12.4551 11.9745 12.3934 12.0843 12.2836C12.1942 12.1738 12.2559 12.0248 12.2559 11.8695V5.71366L7.57059 2.06955L2.88531 5.71366Z" fill="#E6E6E6"/>
</g>
<defs>
<clipPath id="clip0_95_246">
<rect width="14.0558" height="14.0558" fill="white" transform="translate(0.542664 0.156281)"/>
</clipPath>
</defs>
</svg>
