<svg width="11" height="14" viewBox="0 0 11 14" fill="none" xmlns="http://www.w3.org/2000/svg">
<path d="M0.397583 13.8819C0.397583 11.0636 2.68226 8.77888 5.50056 8.77888C8.31887 8.77888 10.6035 11.0636 10.6035 13.8819H9.3278C9.3278 11.7681 7.61428 10.0546 5.50056 10.0546C3.38684 10.0546 1.67333 11.7681 1.67333 13.8819H0.397583ZM5.50056 8.14101C3.38602 8.14101 1.67333 6.42832 1.67333 4.31378C1.67333 2.19923 3.38602 0.486542 5.50056 0.486542C7.61511 0.486542 9.3278 2.19923 9.3278 4.31378C9.3278 6.42832 7.61511 8.14101 5.50056 8.14101ZM5.50056 6.86527C6.91026 6.86527 8.05205 5.72347 8.05205 4.31378C8.05205 2.90408 6.91026 1.76229 5.50056 1.76229C4.09086 1.76229 2.94907 2.90408 2.94907 4.31378C2.94907 5.72347 4.09086 6.86527 5.50056 6.86527Z" fill="white"/>
</svg>
